<svg version="1.1" xmlns="http://www.w3.org/2000/svg" xmlns:xlink="http://www.w3.org/1999/xlink" x="0" y="0" viewBox="0 0 17.3 17.3" enable-background="new 0 0 17.3 17.3" xml:space="preserve">
  <path d="M17.3 7.7c0 0.6 0 1.3 0 1.9 -0.1 0-0.2 0.1-0.3 0.1 -0.7 0.3-1.3 0.5-2 0.8 -0.1 0-0.2 0.1-0.2 0.2 -0.1 0.2-0.2 0.5-0.3 0.7 -0.1 0.1-0.1 0.3 0 0.4 0.3 0.6 0.6 1.3 0.9 1.9 0.1 0.1 0 0.2-0.1 0.3 -0.4 0.4-0.7 0.7-1.1 1.1 -0.1 0.1-0.2 0.1-0.4 0.1 -0.7-0.3-1.4-0.5-2.1-0.8 -0.1 0-0.2 0-0.2 0 -0.3 0.1-0.5 0.2-0.8 0.3 -0.1 0-0.2 0.1-0.2 0.2 -0.3 0.7-0.5 1.3-0.8 2 -0.1 0.1-0.1 0.2-0.3 0.2 -0.5 0-1 0-1.6 0 -0.2 0-0.3-0.1-0.3-0.2 -0.3-0.7-0.6-1.3-0.9-2 0-0.1-0.1-0.2-0.2-0.2 -0.2-0.1-0.5-0.2-0.7-0.3 -0.1-0.1-0.2-0.1-0.3 0 -0.7 0.3-1.3 0.6-2 0.8 -0.1 0.1-0.2 0-0.3-0.1 -0.4-0.4-0.7-0.7-1.1-1.1C1.9 14 1.9 13.9 2 13.8c0.3-0.7 0.5-1.3 0.8-2 0-0.1 0-0.2 0-0.3 -0.1-0.2-0.2-0.5-0.3-0.7 0-0.1-0.1-0.2-0.2-0.2 -0.3-0.1-0.7-0.2-1-0.4C0.9 10 0.4 9.8 0 9.6 0 9 0 8.4 0 7.8c0.1 0 0.2-0.1 0.3-0.1 0.7-0.3 1.3-0.5 2-0.8 0.1 0 0.2-0.1 0.2-0.2 0.1-0.2 0.2-0.5 0.3-0.7 0-0.1 0-0.2 0-0.3 -0.3-0.7-0.6-1.3-0.9-2C1.9 3.4 1.9 3.4 2 3.3c0.4-0.4 0.7-0.7 1.1-1.1C3.2 2.1 3.3 2 3.4 2.1c0.7 0.3 1.4 0.5 2.1 0.8 0.1 0 0.2 0 0.2 0C6 2.8 6.3 2.7 6.5 2.6c0.1 0 0.2-0.1 0.2-0.2C7 1.7 7.3 1 7.6 0.4c0.1-0.1 0.1-0.2 0.3-0.2 0.5 0 1 0 1.6 0 0.2 0 0.3 0.1 0.3 0.2 0.3 0.7 0.6 1.3 0.9 2 0 0.1 0.1 0.2 0.2 0.2 0.2 0.1 0.5 0.2 0.7 0.3 0.1 0.1 0.2 0 0.3 0 0.7-0.3 1.3-0.6 2-0.8C14 2 14.1 2 14.2 2.1c0.4 0.4 0.7 0.7 1.1 1.1 0.1 0.1 0.1 0.2 0.1 0.4 -0.3 0.7-0.6 1.3-0.8 2 0 0.1 0 0.2 0 0.3 0.1 0.3 0.2 0.5 0.3 0.8 0 0.1 0.1 0.1 0.2 0.2C15.4 6.9 15.7 7 16 7.1 16.4 7.3 16.9 7.5 17.3 7.7zM8.7 11.4c1.5 0 2.8-1.2 2.8-2.7 0-1.5-1.2-2.7-2.8-2.7C7.2 6 5.9 7.2 5.9 8.7 5.9 10.2 7.1 11.4 8.7 11.4z"/>
</svg>
