<svg version="1.1" xmlns="http://www.w3.org/2000/svg" xmlns:xlink="http://www.w3.org/1999/xlink" x="0" y="0" viewBox="0 0 200.2 200.2" enable-background="new 0 0 200.2 200.2" xml:space="preserve">
  <path d="M113 0.4c3.5 0 7 0 10.6 0 0.6 0.1 1.1 0.3 1.7 0.3 11.5 0.9 22.4 4.2 32.5 9.8 15.7 8.7 27.5 21.2 35.2 37.6 7.8 16.6 9.8 34 5.8 51.8 -5.9 26.4-21.2 45.7-45.7 57.2 -23.9 11.3-47.9 10.5-71.6-0.9 -2.9-1.4-5.6-3.1-8.5-4.7 -0.2 0.3-0.4 0.6-0.7 0.9C58 166.7 43.8 180.9 29.6 195c-7.1 7-16.7 7.4-23.9 1.1 -3.1-2.8-4.6-6.4-5.4-10.3 0-1.3 0-2.6 0-3.9 0.9-5.2 4-9 7.7-12.6 13.2-13.1 26.4-26.3 39.6-39.5 0.6-0.6 1.3-1.1 1.8-1.5 -0.1-0.5-0.1-0.6-0.1-0.7 -0.6-1-1.1-1.9-1.7-2.9 -10-17.1-13.5-35.5-10.5-55.1 2.7-17 10.1-31.6 22-44 12-12.4 26.5-20.4 43.5-23.7C106.1 1.3 109.6 0.9 113 0.4zM118 28.9c-29.7 0.3-53.7 24.4-53.5 53.9 0.2 29.7 24.5 53.9 54 53.6 29.7-0.3 53.7-24.4 53.5-53.9C171.9 52.8 147.6 28.7 118 28.9z"/>
</svg>
