<svg version="1.1" xmlns="http://www.w3.org/2000/svg" x="0" y="0" viewBox="0 0 27.7 18.6" enable-background="new 0 0 27.7 18.6" xml:space="preserve"><path d="M5.4 10.4c6.8-3 13.5-5.9 20.1-8.9 0 0 0-0.1 0-0.1 -1.3 0.4-2.6 0.8-3.9 1.2C15.9 4.4 10.1 6.2 4.4 8.1 4 8.2 3.9 8.1 3.7 7.8c-1-1.6-2.1-3.2-3.1-4.7C0.2 2.5 0 1.9 0.3 1.2c0.4-0.7 1-0.9 1.7-0.9 8.2 0 16.4-0.1 24.7-0.1 0.3 0 0.7 0 0.9 0.4 0.2 0.4-0.1 0.6-0.3 0.9 -4.7 5.4-9.4 10.8-14.1 16.3 -1 1.2-2.3 1.1-3.2-0.2 -1.5-2.3-3-4.5-4.5-6.8C5.5 10.6 5.5 10.5 5.4 10.4zM2.4 9.1c1.4 2 2.7 4.1 4.1 6.2 -0.3 0.1-0.5 0.2-0.8 0.2 -0.9 0.2-1.9 0.5-2.9 0.6 -0.9 0.2-1.7-0.4-1.6-1.3 0.3-1.9 0.7-3.8 1-5.7C2.3 9.1 2.4 9.1 2.4 9.1z"/></svg>
