<svg version="1.1" xmlns="http://www.w3.org/2000/svg" x="0" y="0" viewBox="0 0 443.8 443.8" enable-background="new 0 0 443.8 443.8" xml:space="preserve"><path d="M0.9 28.6c2.7-10.3 9-17.1 19.8-18.5 3.7-0.5 7.9-0.1 11.5 1 21.6 6.6 43.2 13.7 64.8 20.5 11.7 3.7 16.3 12.5 17.5 23.8 1 9.9 2.1 19.8 3 29.7 0.3 3 1.5 4 4.5 4.3 35.2 3.8 70.3 7.8 105.5 11.7 29.7 3.3 59.4 6.6 89.1 9.9 32.3 3.6 64.6 7.2 96.8 10.9 4.3 0.5 8.7 0.8 12.9 1.7 12.7 2.8 20.4 14.1 18.2 26.8 -5.7 33.3-11.6 66.5-17.4 99.8 -0.4 2.6-0.9 5.1-1.4 7.7 -1.9 9.8-10.3 17.1-20.2 17.8 -2.2 0.1-4.3 0.1-6.5 0.1 -87 0-173.9 0-260.9 0 -1.9 0-3.7 0-5.9 0 -1.8 10.1-3.5 19.8-5.4 30.3 2.1 0 3.8 0 5.6 0 83.2 0 166.4 0 249.6 0 6.8 0 13.2 1.2 18.5 5.9 7 6.2 9.5 15.7 6.4 24.9 -2.9 8.4-10.9 14.5-19.8 15.1 -1.6 0.1-3.2 0.1-4.8 0.1 -93.3 0-186.7 0-280 0.1 -9.6 0-17.2-2.9-22.5-11.1 -3.8-5.8-4.3-12.2-3.1-18.7 3.8-20.7 8.2-41.4 11.2-62.2 1.1-7.7-0.8-15.8-1.5-23.7 -2.7-27.7-5.5-55.5-8.3-83.2 -2.6-26.6-5.2-53.2-8-79.7 -0.1-1.3-2.1-2.9-3.5-3.4 -14.7-4.8-29.3-9.7-44.2-13.9 -10.9-3-18.6-8.7-21.5-20C0.9 33.8 0.9 31.2 0.9 28.6zM169.1 400.4c-0.1 19.6-15.7 35.5-35 35.6 -19.4 0.1-35.3-16.1-35.3-35.8 0-19.5 15.9-35.3 35.3-35.2C153.7 365.1 169.2 380.8 169.1 400.4zM378.2 400.5c-0.2 19.8-16.2 35.9-35.5 35.5 -19.3-0.3-35-16.4-34.9-35.8 0.1-19.5 16-35.3 35.4-35.1C362.8 365.1 378.3 380.9 378.2 400.5z"/></svg>
